# xmcd
#
# Track frame offsets: 
#        150
#        12415
#        22819
#        32347
#        41651
#        51956
#        61801
#        71655
#        84452
#        94539
#        106049
#        117293
#        130004
#        141859
#        151849
#        162672
#        176655
#        188866
#        201220
#        211700
#
# Disc length: 2995 seconds
#
# Revision: 4
# Processed by: cddbd v1.5.2PL0 Copyright (c) Steve Scherf et al.
# Submitted via: ExactAudioCopyFreeDBPlugin 1.0
#
DISCID=030bb114
DTITLE=Various Artist - Double Trouble- The Cobra Records Story [CD1)
DYEAR=2013
DGENRE=Blues
TTITLE0=Otis Rush - Double Trouble
TTITLE1=Shakey Horton - Have a Good Time
TTITLE2=Magic Sam - Look Whatcha Done
TTITLE3=Harold Burrage - Messed Up
TTITLE4=Betty Everett - My Love
TTITLE5=Ike Turner - Walking Down the Aisle
TTITLE6=Jimmy Kelly and the Rock-A-Beats - Little Chickie
TTITLE7=The Calvaes - Fine Girl
TTITLE8=Duke Jenkins Orchestra - Shake It
TTITLE9=Little Willie Foster - Little Girl
TTITLE10=Clarence Jolly - Changing Love
TTITLE11=Harold Burrage - Betty Jean
TTITLE12=Lee Jackson - Fishin' in My Pond
TTITLE13=Guitar Shorty - You Don't Treat Me Right
TTITLE14=The Clouds - Rock and Roll Boogie
TTITLE15=Otis Rush - I Can't Quit You Baby
TTITLE16=Duke Jenkins Orchestra - Someting Else
TTITLE17=Magic Sam - Easy Baby
TTITLE18=Sunnyland Slim - It's You Baby
TTITLE19=Betty Everett - I'll Weep No More
EXTD=
EXTT0=
EXTT1=
EXTT2=
EXTT3=
EXTT4=
EXTT5=
EXTT6=
EXTT7=
EXTT8=
EXTT9=
EXTT10=
EXTT11=
EXTT12=
EXTT13=
EXTT14=
EXTT15=
EXTT16=
EXTT17=
EXTT18=
EXTT19=
PLAYORDER=
